<?xml version="1.0" encoding="UTF-8"?>
<svg version="1.1" viewBox="0 0 256 256" xmlns="http://www.w3.org/2000/svg">
 <defs>
  <linearGradient id="grad" x2="256" y2="256" gradientUnits="userSpaceOnUse">
   <stop stop-color="#fafafa" offset="0"/>
   <stop stop-color="#a0a8b0" offset="1"/>
  </linearGradient>
 </defs>
 <rect width="256" height="256" ry="32" fill="url(#grad)"/>
 <path d="m174 184c4.3-0.17 5.8 0.11 8.9-0.76 1.6-2.8 5.3-18 6.5-25 0.78-4.3 1.2-8.7 1.2-13s-0.39-6.5-1.2-6.5c-1.1-0.45-4.6 7.1-9.1 7.3-0.43-0.07-1.1-0.74-1.6-1.5-2.6-4.3-1.5-14 2.9-28 1.7-6.1 1.1-21 2-29-1.3-15 0.34-28-1.7-42-0.69-0.69-7.2-0.96-20-0.78-17 0.29-54-0.13-56-3.3-0.91-3.2 0.56-20 1.6-22 0.43-0.87 1.3-1.7 2.6-2.6 3.7-1.1 2.9-9.7 2.5-10-0.71-0.71-13-2.5-13-2-0.099 0.074-2.5 4.6-1.2 9.1 1.3 2.1 5.2 2.4 5.2 4.2-0.22 7.8-1.3 15-1.9 23h-13c-0.84-3-1.6-6.1-2.3-9.1-0.74-1.4-1.1-3.2-2.5-3.3-0.87 0.61-2.6 2.6-3.9 6.5-1.4 4-2 7.2-2.6 10-0.61 4.3-1.5 9.1-2.6 14-1.7 8.7-2.6 13-2.6 14-0.069 0.78-0.14 2.3 1.2 3.5 0.43 0.17 1.3 0.35 2.6 0.52 1.3 0.17 2.2 0.26 2.6 0.26 0.87 0.069 2.6 0.1 5.2 0.1 50 0.17 75 0.61 77 1.3 0.78 0.43 1.2 2.2 1.3 5.2 0.78 4.3 1.7 11 2.6 21 0.87 9.6 1.7 18 2.6 25 0.78 6.9-0.087 11-2.6 12-2.6 0.87-4.3 1.3-5.2 1.3-7.8 0.26-25 0.3-52 0.1-15-0.17-23-0.043-26 0.39-2.6 0.43-3.9 1.3-3.9 2.6-0.069 0.35-0.29 1.7-0.65 3.9-1.6 6.5-2.4 15-6.4 21-1.7 3.5-2.6 5.6-2.6 6.5 0.069 0.87 0.94 1.7 2.6 2.6 4.3 0.87 8.7 0.96 13 0.26 0.87-0.17 20-0.48 59-0.91 31 3.3 14 0.91 32 3.7zm-45-68c0 2.6-0.87 4.8-2.6 6.5-1.7 1.7-3.9 2.6-6.5 2.6-2.6 0-4.8-0.87-6.5-2.6-1.7-1.7-2.6-3.9-2.6-6.5s0.87-4.8 2.6-6.5c1.7-1.7 3.9-2.6 6.5-2.6 2.6 0 4.8 0.87 6.5 2.6 1.7 1.7 2.6 3.9 2.6 6.5zm-1.3 94c0 2.6-0.87 4.8-2.6 6.5-1.7 1.7-3.9 2.6-6.5 2.6s-4.8-0.87-6.5-2.6c-1.7-1.7-2.6-3.9-2.6-6.5s0.87-4.8 2.6-6.5 3.9-2.6 6.5-2.6 4.8 0.87 6.5 2.6c1.7 1.7 2.6 3.9 2.6 6.5zm0 31c0 2.6-0.87 4.8-2.6 6.5-1.7 1.7-3.9 2.6-6.5 2.6s-4.8-0.87-6.5-2.6c-1.7-1.7-2.6-3.9-2.6-6.5s0.87-4.8 2.6-6.5 3.9-2.6 6.5-2.6 4.8 0.87 6.5 2.6c1.7 1.7 2.6 3.9 2.6 6.5z" stroke-width="1.3" aria-label="בְּ"/>
</svg>
