<svg width="512" height="512" version="1.1" viewBox="0 0 135 135" xmlns="http://www.w3.org/2000/svg">
 <path d="m34.3 111-30.7-17.4v-11.3c0-6.19 0.144-11.2 0.321-11.1 0.176 0.0926 14.1 6.31 31 13.8l30.7 13.6v14.9c0 8.17-0.144 14.9-0.321 14.9-0.176-4e-3 -14.1-7.84-31-17.4zm35.6 2.55v-14.9l30.7-13.6c16.9-7.5 30.8-13.7 31-13.8 0.18-0.0959 0.276 4.95 0.214 11.2l-0.114 11.4-30.6 17.3c-16.8 9.5-30.7 17.3-30.9 17.3-0.176 4e-3 -0.321-6.68-0.321-14.9zm26.7-36c-6.2-2.99-14.1-5.47-22-6.9-5.12-0.927-18.8-1.34-22.4-0.687-1.6 0.285-1.54 0.223 0.923-0.946 3.24-1.54 8.09-2.84 12-3.23l2.97-0.292 1.3-3.4c1.09-2.86 1.2-3.44 0.66-3.64-0.945-0.363-10 0.238-14.7 0.973-5.31 0.836-12.5 2.72-17.8 4.67-4.16 1.53-15.8 7.03-18.4 8.67l-1.28 0.824-3.42-1.48c-1.88-0.812-4.08-1.76-4.89-2.11l-1.47-0.633 21.4-8.31c11.7-4.57 25.1-9.77 29.8-11.6l8.41-3.24 7.37 2.78 0.948-0.867c2.04-1.86 3.8-2.45 7.15-2.38 1.76 0.0367 3.66 0.129 4.21 0.205 1.16 0.16 0.869 0.77 4.91-10.5l2.73-7.61-1.53-0.638c-2.89-1.21-4.37-3.31-4.45-6.32-0.0551-2.07 3.78-13.1 4.56-13.1 0.456 0 19.9 5.3 21.1 5.76 0.656 0.246-2.82 10.3-4.37 12.7-1.4 2.12-4.1 3.36-7.31 3.37l-2.54 5e-3 -3.09 8.65c-1.7 4.76-3.14 8.92-3.21 9.26-0.0731 0.374 0.389 0.716 1.21 0.895 4.97 1.09 8.4 5.76 7.7 10.5-0.142 0.943-1.39 4.88-2.77 8.76l-2.51 7.04 1.17 1.51c1.23 1.58 1.9 3.03 1.38 2.97-0.169-0.02-1.85-0.779-3.73-1.69zm9.9-56.8c0.747-2 0.866-2.73 0.468-2.87-1.63-0.567-10.2-2.82-10.3-2.7-0.308 0.38-1.52 4.45-1.52 5.11 0 0.415 0.229 0.895 0.509 1.07 1.18 0.732 7.09 2.26 8.43 2.18 1.37-0.0829 1.51-0.24 2.46-2.77zm6.56 50.3c-2.47-1.37-5.45-2.92-6.63-3.45s-2.19-0.997-2.25-1.03c-0.0942-0.0501 1.59-4.82 1.84-5.22 0.0395-0.0621 4.86 1.7 10.7 3.93l10.6 4.04-1.62 0.681c-0.89 0.375-2.72 1.17-4.06 1.78-1.34 0.602-2.83 1.24-3.3 1.43-0.635 0.247-2.01-0.308-5.34-2.15z" fill="#804"/>
</svg>
